<svg width="64" height="64" viewBox="0 0 64 64" fill="none" xmlns="http://www.w3.org/2000/svg">
<path d="M14.241 12.0791C14.241 13.0171 13.4806 13.7776 12.5425 13.7776C11.6044 13.7776 10.844 13.0171 10.844 12.0791C10.844 11.141 11.6044 10.3806 12.5425 10.3806C13.4806 10.3806 14.241 11.141 14.241 12.0791Z" fill="#525651"/>
<path d="M20.3985 12.0791C20.3985 13.0171 19.6381 13.7776 18.7 13.7776C17.762 13.7776 17.0015 13.0171 17.0015 12.0791C17.0015 11.141 17.762 10.3806 18.7 10.3806C19.6381 10.3806 20.3985 11.141 20.3985 12.0791Z" fill="#525651"/>
<path d="M26.5561 12.0791C26.5561 13.0171 25.7956 13.7776 24.8576 13.7776C23.9195 13.7776 23.1591 13.0171 23.1591 12.0791C23.1591 11.141 23.9195 10.3806 24.8576 10.3806C25.7956 10.3806 26.5561 11.141 26.5561 12.0791Z" fill="#525651"/>
<path d="M11.6055 29.8768H14L16.0313 34.83H16.125L18.1563 29.8768H20.5508V37.8768H18.668V32.9628H18.6016L16.6797 37.826H15.4766L13.5547 32.9354H13.4883V37.8768H11.6055V29.8768ZM22.9248 40.1268C22.6956 40.1268 22.4795 40.1086 22.2764 40.0721C22.0732 40.0383 21.8988 39.9927 21.7529 39.9354L22.1748 38.5487C22.3623 38.6112 22.5316 38.6477 22.6826 38.6581C22.8363 38.6685 22.9678 38.6438 23.0771 38.5839C23.1891 38.5266 23.2751 38.4237 23.335 38.2753L23.4092 38.0956L21.2764 31.8768H23.2764L24.3818 36.1581H24.4443L25.5654 31.8768H27.5771L25.3154 38.451C25.2061 38.7792 25.0511 39.0682 24.8506 39.3182C24.6527 39.5708 24.3962 39.7688 24.0811 39.912C23.7686 40.0552 23.3831 40.1268 22.9248 40.1268ZM34.9971 32.2753C34.971 31.9888 34.8551 31.7662 34.6494 31.6073C34.4463 31.4458 34.1559 31.3651 33.7783 31.3651C33.5283 31.3651 33.32 31.3977 33.1533 31.4628C32.9867 31.5279 32.8617 31.6177 32.7783 31.7323C32.695 31.8443 32.652 31.9732 32.6494 32.119C32.6442 32.2388 32.6676 32.3443 32.7197 32.4354C32.7744 32.5266 32.8525 32.6073 32.9541 32.6776C33.0583 32.7453 33.1833 32.8052 33.3291 32.8573C33.4749 32.9094 33.639 32.955 33.8213 32.994L34.5088 33.1503C34.9046 33.2362 35.2536 33.3508 35.5557 33.494C35.8604 33.6372 36.1156 33.8078 36.3213 34.0057C36.5296 34.2037 36.6872 34.4315 36.7939 34.6893C36.9007 34.9471 36.9554 35.2362 36.958 35.5565C36.9554 36.0617 36.8278 36.4953 36.5752 36.8573C36.3226 37.2193 35.9593 37.4966 35.4854 37.6893C35.014 37.882 34.445 37.9784 33.7783 37.9784C33.109 37.9784 32.5257 37.8781 32.0283 37.6776C31.5309 37.4771 31.1442 37.1724 30.8682 36.7635C30.5921 36.3547 30.4502 35.8378 30.4424 35.2128H32.2939C32.3096 35.4706 32.3786 35.6854 32.501 35.8573C32.6234 36.0292 32.7913 36.1594 33.0049 36.2479C33.221 36.3365 33.471 36.3807 33.7549 36.3807C34.0153 36.3807 34.2367 36.3456 34.4189 36.2753C34.6038 36.205 34.7458 36.1073 34.8447 35.9823C34.9437 35.8573 34.9945 35.7141 34.9971 35.5526C34.9945 35.4016 34.9476 35.2727 34.8564 35.1659C34.7653 35.0565 34.6247 34.9628 34.4346 34.8846C34.2471 34.8039 34.0075 34.7297 33.7158 34.662L32.8799 34.4667C32.1872 34.3078 31.6416 34.0513 31.2432 33.6971C30.8447 33.3404 30.6468 32.8586 30.6494 32.2518C30.6468 31.757 30.7796 31.3234 31.0479 30.951C31.3161 30.5787 31.6872 30.2883 32.1611 30.08C32.6351 29.8716 33.1755 29.7675 33.7822 29.7675C34.402 29.7675 34.9398 29.8729 35.3955 30.0839C35.8538 30.2922 36.2093 30.5852 36.4619 30.9628C36.7145 31.3404 36.8434 31.7779 36.8486 32.2753H34.9971ZM40.9932 35.0018H42.5557L43.2197 35.8495L44.0908 36.8495L45.4307 38.5018H43.6807L42.7432 37.3807L42.1885 36.5839L40.9932 35.0018ZM45.4854 33.8768C45.4854 34.757 45.3161 35.5031 44.9775 36.1151C44.639 36.7271 44.1807 37.1919 43.6025 37.5096C43.027 37.8274 42.3812 37.9862 41.665 37.9862C40.9463 37.9862 40.2992 37.826 39.7236 37.5057C39.1481 37.1854 38.6911 36.7206 38.3525 36.1112C38.0166 35.4992 37.8486 34.7544 37.8486 33.8768C37.8486 32.9966 38.0166 32.2505 38.3525 31.6385C38.6911 31.0266 39.1481 30.5617 39.7236 30.244C40.2992 29.9263 40.9463 29.7675 41.665 29.7675C42.3812 29.7675 43.027 29.9263 43.6025 30.244C44.1807 30.5617 44.639 31.0266 44.9775 31.6385C45.3161 32.2505 45.4854 32.9966 45.4854 33.8768ZM43.5088 33.8768C43.5088 33.356 43.4346 32.9159 43.2861 32.5565C43.1403 32.1971 42.9294 31.925 42.6533 31.7401C42.3799 31.5552 42.0505 31.4628 41.665 31.4628C41.2822 31.4628 40.9528 31.5552 40.6768 31.7401C40.4007 31.925 40.1885 32.1971 40.04 32.5565C39.8942 32.9159 39.8213 33.356 39.8213 33.8768C39.8213 34.3977 39.8942 34.8378 40.04 35.1971C40.1885 35.5565 40.4007 35.8287 40.6768 36.0135C40.9528 36.1984 41.2822 36.2909 41.665 36.2909C42.0505 36.2909 42.3799 36.1984 42.6533 36.0135C42.9294 35.8287 43.1403 35.5565 43.2861 35.1971C43.4346 34.8378 43.5088 34.3977 43.5088 33.8768ZM46.625 37.8768V29.8768H48.5586V36.3065H51.8867V37.8768H46.625Z" fill="#525651"/>
<rect x="38.636" y="48.3658" width="7.05773" height="1.19863" rx="0.599316" fill="#525651"/>
<path fill-rule="evenodd" clip-rule="evenodd" d="M40.9579 52.32H52.748C53.079 52.32 53.3473 52.0517 53.3473 51.7207C53.3473 51.3897 53.079 51.1214 52.748 51.1214H40.9579V52.32ZM39.9579 51.1214H39.2354C38.9044 51.1214 38.636 51.3897 38.636 51.7207C38.636 52.0517 38.9044 52.32 39.2354 52.32H39.9579L39.9579 51.1214Z" fill="#525651"/>
<path fill-rule="evenodd" clip-rule="evenodd" d="M10.2219 4.51114H33.955V6.51114H10.2219C9.11735 6.51114 8.22192 7.40657 8.22192 8.51114V37.8768H6.22192V8.51114C6.22192 6.302 8.01279 4.51114 10.2219 4.51114ZM25.3105 57.5494H56.4214C58.6305 57.5494 60.4214 55.7586 60.4214 53.5494V25.4029H58.4214V53.5494C58.4214 54.654 57.526 55.5494 56.4214 55.5494H25.3105V57.5494Z" fill="#525651"/>
<path d="M37.657 21.2934V6.91119L45.2112 8.89662H51.2159L57.947 7.15333V20.7607L56.0584 23.2304L47.5841 24.8768L39.4487 23.2304L37.657 21.2934Z" fill="url(#paint0_linear_209_1117)" stroke="#1F77B4"/>
<path d="M57.0137 5.75318C57.0137 7.12559 52.6872 8.23815 47.3501 8.23815C42.013 8.23815 37.6864 7.12559 37.6864 5.75318C37.6864 4.38078 42.013 3.26822 47.3501 3.26822C52.6872 3.26822 57.0137 4.38078 57.0137 5.75318Z" fill="#525651"/>
<ellipse cx="47.2201" cy="5.75321" rx="9.84225" ry="2.42613" fill="#F8D9B6"/>
<path fill-rule="evenodd" clip-rule="evenodd" d="M40.5773 12.8773C42.4025 13.6144 44.9402 14.0838 47.6964 14.0838C50.4525 14.0838 52.9165 13.6144 54.6673 12.8806C55.5435 12.5133 56.2123 12.0919 56.6533 11.6549C57.0912 11.221 57.2782 10.8009 57.2782 10.4087H58.5744C58.5744 11.2004 58.1889 11.9083 57.5914 12.5004C56.9971 13.0893 56.1678 13.5918 55.1928 14.0005C53.241 14.8185 50.5901 15.3089 47.6964 15.3089C44.8027 15.3089 42.0854 14.8185 40.0679 14.0038C39.0605 13.5969 38.1972 13.097 37.5761 12.5112C36.9531 11.9237 36.5381 11.2127 36.5381 10.4087H37.8343C37.8343 10.7886 38.0269 11.2056 38.4917 11.644C38.9585 12.0842 39.6634 12.5082 40.5773 12.8773Z" fill="#525651"/>
<path fill-rule="evenodd" clip-rule="evenodd" d="M40.5773 18.39C42.4025 19.1271 44.9402 19.5966 47.6964 19.5966C50.4525 19.5966 52.9165 19.1271 54.6673 18.3933C55.5435 18.0261 56.2123 17.6046 56.6533 17.1676C57.0912 16.7337 57.2782 16.3137 57.2782 15.9214H58.5744C58.5744 16.7132 58.1889 17.4211 57.5914 18.0131C56.9971 18.602 56.1678 19.1045 55.1928 19.5132C53.241 20.3312 50.5901 20.8216 47.6964 20.8216C44.8027 20.8216 42.0854 20.3313 40.0679 19.5165C39.0605 19.1097 38.1972 18.6097 37.5761 18.024C36.9531 17.4364 36.5381 16.7255 36.5381 15.9214H37.8343C37.8343 16.3014 38.0269 16.7184 38.4917 17.1568C38.9585 17.597 39.6634 18.0209 40.5773 18.39Z" fill="#525651"/>
<path fill-rule="evenodd" clip-rule="evenodd" d="M37.1862 20.2091C37.5442 20.2091 37.8343 20.4833 37.8343 20.8216C37.8343 21.2016 38.0269 21.6186 38.4917 22.057C38.9585 22.4972 39.6634 22.9212 40.5773 23.2902C42.4025 24.0273 44.9402 24.4968 47.6964 24.4968C50.4525 24.4968 52.9165 24.0273 54.6673 23.2935C55.5435 22.9263 56.2123 22.5049 56.6533 22.0678C57.0912 21.634 57.2782 21.2139 57.2782 20.8216C57.2782 20.4833 57.5683 20.2091 57.9263 20.2091C58.2842 20.2091 58.5744 20.4833 58.5744 20.8216C58.5744 21.6134 58.1889 22.3213 57.5914 22.9133C56.9971 23.5023 56.1678 24.0047 55.1928 24.4134C53.241 25.2315 50.5901 25.7218 47.6964 25.7218C44.8027 25.7218 42.0854 25.2315 40.0679 24.4167C39.0605 24.0099 38.1972 23.5099 37.5761 22.9242C36.9531 22.3366 36.5381 21.6257 36.5381 20.8216C36.5381 20.4833 36.8283 20.2091 37.1862 20.2091Z" fill="#525651"/>
<path fill-rule="evenodd" clip-rule="evenodd" d="M56.8486 6.34143C57.2468 6.00781 57.2782 5.80114 57.2782 5.73814C57.2782 5.67515 57.2468 5.46848 56.8486 5.13485C56.452 4.8025 55.804 4.44723 54.8921 4.12404C53.0779 3.48107 50.4845 3.05834 47.5562 3.05834C44.628 3.05834 42.0346 3.48107 40.2204 4.12404C39.3085 4.44723 38.6605 4.8025 38.2639 5.13485C37.8657 5.46848 37.8343 5.67515 37.8343 5.73814C37.8343 5.80114 37.8657 6.00781 38.2639 6.34143C38.6605 6.67379 39.3085 7.02906 40.2204 7.35224C42.0346 7.99522 44.628 8.41795 47.5562 8.41795C50.4845 8.41795 53.0779 7.99522 54.8921 7.35224C55.804 7.02906 56.452 6.67379 56.8486 6.34143ZM47.5562 9.643C53.6414 9.643 58.5744 7.89474 58.5744 5.73814C58.5744 3.58155 53.6414 1.83328 47.5562 1.83328C41.4711 1.83328 36.5381 3.58155 36.5381 5.73814C36.5381 7.89474 41.4711 9.643 47.5562 9.643Z" fill="#525651"/>
<path fill-rule="evenodd" clip-rule="evenodd" d="M37.1862 5.26396C37.5442 5.26396 37.8343 5.5382 37.8343 5.87649L37.8343 20.9441C37.8343 21.2824 37.5442 21.5567 37.1862 21.5567C36.8283 21.5567 36.5381 21.2824 36.5381 20.9441L36.5381 5.87649C36.5381 5.5382 36.8283 5.26396 37.1862 5.26396Z" fill="#525651"/>
<path fill-rule="evenodd" clip-rule="evenodd" d="M57.9263 5.47783C58.2842 5.47783 58.5744 5.75206 58.5744 6.09035V21.0054C58.5744 21.3437 58.2842 21.6179 57.9263 21.6179C57.5683 21.6179 57.2782 21.3437 57.2782 21.0054V6.09035C57.2782 5.75206 57.5683 5.47783 57.9263 5.47783Z" fill="#525651"/>
<path d="M40.5773 12.8773L40.7645 12.4136L40.7645 12.4136L40.5773 12.8773ZM54.6673 12.8806L54.474 12.4195L54.474 12.4195L54.6673 12.8806ZM56.6533 11.6549L56.3014 11.2997L56.3014 11.2997L56.6533 11.6549ZM57.2782 10.4087V9.90866H56.7782V10.4087H57.2782ZM58.5744 10.4087H59.0744V9.90866H58.5744V10.4087ZM57.5914 12.5004L57.2394 12.1452L57.2394 12.1452L57.5914 12.5004ZM55.1928 14.0005L55.3861 14.4616L55.3861 14.4616L55.1928 14.0005ZM40.0679 14.0038L40.2552 13.5402L40.2552 13.5402L40.0679 14.0038ZM37.5761 12.5112L37.2331 12.875L37.5761 12.5112ZM36.5381 10.4087V9.90866H36.0381V10.4087H36.5381ZM37.8343 10.4087H38.3343V9.90866H37.8343V10.4087ZM38.4917 11.644L38.1487 12.0078L38.1487 12.0078L38.4917 11.644ZM40.5773 18.39L40.7645 17.9264L40.7645 17.9264L40.5773 18.39ZM54.6673 18.3933L54.474 17.9322L54.474 17.9322L54.6673 18.3933ZM56.6533 17.1676L56.3014 16.8125L56.3014 16.8125L56.6533 17.1676ZM57.2782 15.9214V15.4214H56.7782V15.9214H57.2782ZM58.5744 15.9214H59.0744V15.4214H58.5744V15.9214ZM57.5914 18.0131L57.2394 17.658L57.2394 17.658L57.5914 18.0131ZM55.1928 19.5132L55.3861 19.9743L55.3861 19.9743L55.1928 19.5132ZM40.0679 19.5165L40.2552 19.0529L40.2552 19.0529L40.0679 19.5165ZM37.5761 18.024L37.2331 18.3877L37.5761 18.024ZM36.5381 15.9214V15.4214H36.0381V15.9214H36.5381ZM37.8343 15.9214H38.3343V15.4214H37.8343V15.9214ZM38.4917 17.1568L38.1487 17.5205L38.1487 17.5205L38.4917 17.1568ZM38.4917 22.057L38.1487 22.4208L38.1487 22.4208L38.4917 22.057ZM40.5773 23.2902L40.7645 22.8266L40.7645 22.8266L40.5773 23.2902ZM54.6673 23.2935L54.474 22.8324L54.474 22.8324L54.6673 23.2935ZM56.6533 22.0678L56.3014 21.7127L56.3014 21.7127L56.6533 22.0678ZM57.5914 22.9133L57.2394 22.5582L57.2394 22.5582L57.5914 22.9133ZM55.1928 24.4134L55.3861 24.8745L55.3861 24.8745L55.1928 24.4134ZM40.0679 24.4167L40.2552 23.9531L40.2552 23.9531L40.0679 24.4167ZM37.5761 22.9242L37.2331 23.2879L37.5761 22.9242ZM56.8486 6.34143L56.5275 5.95818L56.5275 5.95818L56.8486 6.34143ZM56.8486 5.13485L56.5275 5.5181L56.5275 5.5181L56.8486 5.13485ZM40.2204 4.12404L40.3874 4.59532L40.3874 4.59532L40.2204 4.12404ZM38.2639 5.13485L37.9428 4.75161L37.9428 4.75161L38.2639 5.13485ZM38.2639 6.34143L37.9428 6.72468L37.9428 6.72468L38.2639 6.34143ZM40.2204 7.35224L40.3874 6.88096L40.3874 6.88096L40.2204 7.35224ZM54.8921 7.35224L54.7251 6.88096L54.7251 6.88096L54.8921 7.35224ZM37.8343 5.87649L37.3343 5.87649L37.8343 5.87649ZM37.8343 20.9441L38.3343 20.9441L37.8343 20.9441ZM36.5381 20.9441L37.0381 20.9441L36.5381 20.9441ZM36.5381 5.87649L36.0381 5.87649L36.5381 5.87649ZM58.5744 6.09035L59.0744 6.09035V6.09035L58.5744 6.09035ZM58.5744 21.0054L58.0744 21.0054V21.0054L58.5744 21.0054ZM57.2782 21.0054L56.7782 21.0054V21.0054L57.2782 21.0054ZM57.2782 6.09035L57.7782 6.09035V6.09035L57.2782 6.09035ZM47.6964 13.5838C44.9901 13.5838 42.5182 13.1219 40.7645 12.4136L40.3901 13.3409C42.2867 14.1068 44.8904 14.5838 47.6964 14.5838V13.5838ZM54.474 12.4195C52.798 13.1219 50.4026 13.5838 47.6964 13.5838V14.5838C50.5023 14.5838 53.035 14.1069 54.8605 13.3417L54.474 12.4195ZM56.3014 11.2997C55.9208 11.6769 55.3138 12.0674 54.474 12.4195L54.8605 13.3417C55.7731 12.9592 56.5039 12.5069 57.0053 12.01L56.3014 11.2997ZM56.7782 10.4087C56.7782 10.6283 56.6765 10.928 56.3014 11.2997L57.0053 12.01C57.5059 11.514 57.7782 10.9735 57.7782 10.4087H56.7782ZM58.5744 9.90866H57.2782V10.9087H58.5744V9.90866ZM57.9433 12.8555C58.6027 12.2021 59.0744 11.3738 59.0744 10.4087H58.0744C58.0744 11.027 57.775 11.6145 57.2394 12.1452L57.9433 12.8555ZM55.3861 14.4616C56.3974 14.0377 57.2886 13.5043 57.9433 12.8555L57.2394 12.1452C56.7055 12.6743 55.9382 13.1459 54.9995 13.5393L55.3861 14.4616ZM47.6964 15.8089C50.6399 15.8089 53.3595 15.311 55.3861 14.4616L54.9995 13.5393C53.1225 14.326 50.5403 14.8089 47.6964 14.8089V15.8089ZM39.8807 14.4674C41.9697 15.311 44.7529 15.8089 47.6964 15.8089V14.8089C44.8526 14.8089 42.2011 14.326 40.2552 13.5402L39.8807 14.4674ZM37.2331 12.875C37.9147 13.5178 38.8389 14.0467 39.8807 14.4674L40.2552 13.5402C39.2821 13.1472 38.4797 12.6761 37.9192 12.1475L37.2331 12.875ZM36.0381 10.4087C36.0381 11.3967 36.5495 12.2303 37.2331 12.875L37.9192 12.1475C37.3568 11.6171 37.0381 11.0287 37.0381 10.4087H36.0381ZM37.8343 9.90866H36.5381V10.9087H37.8343V9.90866ZM38.8348 11.2803C38.4315 10.9 38.3343 10.6057 38.3343 10.4087H37.3343C37.3343 10.9716 37.6222 11.5113 38.1487 12.0078L38.8348 11.2803ZM40.7645 12.4136C39.885 12.0584 39.241 11.6634 38.8348 11.2803L38.1487 12.0078C38.676 12.5051 39.4419 12.9579 40.3901 13.3409L40.7645 12.4136ZM47.6964 19.0966C44.9901 19.0966 42.5182 18.6346 40.7645 17.9264L40.3901 18.8536C42.2867 19.6196 44.8904 20.0966 47.6964 20.0966V19.0966ZM54.474 17.9322C52.798 18.6346 50.4026 19.0966 47.6964 19.0966V20.0966C50.5023 20.0966 53.035 19.6196 54.8605 18.8545L54.474 17.9322ZM56.3014 16.8125C55.9208 17.1896 55.3138 17.5802 54.474 17.9322L54.8605 18.8545C55.7731 18.472 56.5039 18.0196 57.0053 17.5228L56.3014 16.8125ZM56.7782 15.9214C56.7782 16.1411 56.6765 16.4408 56.3014 16.8125L57.0053 17.5228C57.5059 17.0267 57.7782 16.4862 57.7782 15.9214H56.7782ZM58.5744 15.4214H57.2782V16.4214H58.5744V15.4214ZM57.9433 18.3683C58.6027 17.7148 59.0744 16.8866 59.0744 15.9214H58.0744C58.0744 16.5398 57.775 17.1273 57.2394 17.658L57.9433 18.3683ZM55.3861 19.9743C56.3974 19.5504 57.2886 19.017 57.9433 18.3683L57.2394 17.658C56.7055 18.187 55.9382 18.6586 54.9995 19.0521L55.3861 19.9743ZM47.6964 21.3216C50.6399 21.3216 53.3595 20.8237 55.3861 19.9743L54.9995 19.0521C53.1225 19.8388 50.5403 20.3216 47.6964 20.3216V21.3216ZM39.8807 19.9801C41.9697 20.8238 44.7529 21.3216 47.6964 21.3216V20.3216C44.8526 20.3216 42.2011 19.8388 40.2552 19.0529L39.8807 19.9801ZM37.2331 18.3877C37.9147 19.0306 38.8389 19.5594 39.8807 19.9801L40.2552 19.0529C39.2821 18.6599 38.4797 18.1888 37.9192 17.6602L37.2331 18.3877ZM36.0381 15.9214C36.0381 16.9094 36.5495 17.743 37.2331 18.3877L37.9192 17.6602C37.3568 17.1298 37.0381 16.5415 37.0381 15.9214H36.0381ZM37.8343 15.4214H36.5381V16.4214H37.8343V15.4214ZM38.8348 16.793C38.4315 16.4127 38.3343 16.1184 38.3343 15.9214H37.3343C37.3343 16.4843 37.6222 17.024 38.1487 17.5205L38.8348 16.793ZM40.7645 17.9264C39.885 17.5712 39.241 17.1761 38.8348 16.793L38.1487 17.5205C38.676 18.0178 39.4419 18.4707 40.3901 18.8536L40.7645 17.9264ZM38.3343 20.8216C38.3343 20.181 37.7933 19.7091 37.1862 19.7091V20.7091C37.295 20.7091 37.3343 20.7857 37.3343 20.8216H38.3343ZM38.8348 21.6933C38.4315 21.313 38.3343 21.0186 38.3343 20.8216H37.3343C37.3343 21.3845 37.6222 21.9242 38.1487 22.4208L38.8348 21.6933ZM40.7645 22.8266C39.885 22.4714 39.241 22.0763 38.8348 21.6933L38.1487 22.4208C38.676 22.9181 39.4419 23.3709 40.3901 23.7538L40.7645 22.8266ZM47.6964 23.9968C44.9901 23.9968 42.5182 23.5348 40.7645 22.8266L40.3901 23.7538C42.2867 24.5198 44.8904 24.9968 47.6964 24.9968V23.9968ZM54.474 22.8324C52.798 23.5349 50.4026 23.9968 47.6964 23.9968V24.9968C50.5023 24.9968 53.035 24.5198 54.8605 23.7547L54.474 22.8324ZM56.3014 21.7127C55.9208 22.0899 55.3138 22.4804 54.474 22.8324L54.8605 23.7547C55.7731 23.3722 56.5039 22.9199 57.0053 22.423L56.3014 21.7127ZM56.7782 20.8216C56.7782 21.0413 56.6765 21.341 56.3014 21.7127L57.0053 22.423C57.5059 21.927 57.7782 21.3864 57.7782 20.8216H56.7782ZM57.9263 19.7091C57.3192 19.7091 56.7782 20.181 56.7782 20.8216H57.7782C57.7782 20.7857 57.8175 20.7091 57.9263 20.7091V19.7091ZM59.0744 20.8216C59.0744 20.181 58.5334 19.7091 57.9263 19.7091V20.7091C58.0351 20.7091 58.0744 20.7857 58.0744 20.8216H59.0744ZM57.9433 23.2685C58.6027 22.615 59.0744 21.7868 59.0744 20.8216H58.0744C58.0744 21.44 57.775 22.0275 57.2394 22.5582L57.9433 23.2685ZM55.3861 24.8745C56.3974 24.4506 57.2886 23.9173 57.9433 23.2685L57.2394 22.5582C56.7055 23.0873 55.9382 23.5588 54.9995 23.9523L55.3861 24.8745ZM47.6964 26.2218C50.6399 26.2218 53.3595 25.7239 55.3861 24.8745L54.9995 23.9523C53.1225 24.739 50.5403 25.2218 47.6964 25.2218V26.2218ZM39.8807 24.8804C41.9697 25.724 44.7529 26.2218 47.6964 26.2218V25.2218C44.8526 25.2218 42.2011 24.739 40.2552 23.9531L39.8807 24.8804ZM37.2331 23.2879C37.9147 23.9308 38.8389 24.4596 39.8807 24.8804L40.2552 23.9531C39.2821 23.5601 38.4797 23.0891 37.9192 22.5604L37.2331 23.2879ZM36.0381 20.8216C36.0381 21.8097 36.5495 22.6432 37.2331 23.2879L37.9192 22.5604C37.3568 22.03 37.0381 21.4417 37.0381 20.8216H36.0381ZM37.1862 19.7091C36.5791 19.7091 36.0381 20.181 36.0381 20.8216H37.0381C37.0381 20.7857 37.0774 20.7091 37.1862 20.7091V19.7091ZM56.7782 5.73814C56.7782 5.67701 56.7959 5.6598 56.7781 5.691C56.7575 5.72734 56.6943 5.81843 56.5275 5.95818L57.1697 6.72468C57.6319 6.33744 57.7782 6.00323 57.7782 5.73814H56.7782ZM56.5275 5.5181C56.6943 5.65786 56.7575 5.74894 56.7781 5.78529C56.7959 5.81648 56.7782 5.79928 56.7782 5.73814H57.7782C57.7782 5.47306 57.6319 5.13885 57.1697 4.7516L56.5275 5.5181ZM54.7251 4.59532C55.606 4.90752 56.1933 5.23812 56.5275 5.5181L57.1697 4.75161C56.7106 4.36688 56.002 3.98693 55.0591 3.65277L54.7251 4.59532ZM47.5562 3.55834C50.4431 3.55834 52.9773 3.97591 54.7251 4.59532L55.0591 3.65277C53.1784 2.98623 50.526 2.55834 47.5562 2.55834V3.55834ZM40.3874 4.59532C42.1352 3.97591 44.6694 3.55834 47.5562 3.55834V2.55834C44.5865 2.55834 41.9341 2.98623 40.0534 3.65277L40.3874 4.59532ZM38.585 5.5181C38.9192 5.23812 39.5065 4.90752 40.3874 4.59532L40.0534 3.65277C39.1105 3.98693 38.4019 4.36688 37.9428 4.75161L38.585 5.5181ZM38.3343 5.73814C38.3343 5.79928 38.3166 5.81648 38.3344 5.78528C38.355 5.74894 38.4182 5.65786 38.585 5.5181L37.9428 4.75161C37.4806 5.13885 37.3343 5.47306 37.3343 5.73814H38.3343ZM38.585 5.95818C38.4182 5.81843 38.355 5.72734 38.3344 5.691C38.3166 5.6598 38.3343 5.67701 38.3343 5.73814H37.3343C37.3343 6.00323 37.4806 6.33744 37.9428 6.72468L38.585 5.95818ZM40.3874 6.88096C39.5065 6.56876 38.9192 6.23817 38.585 5.95818L37.9428 6.72468C38.4019 7.10941 39.1105 7.48936 40.0534 7.82352L40.3874 6.88096ZM47.5562 7.91795C44.6694 7.91795 42.1352 7.50038 40.3874 6.88096L40.0534 7.82352C41.9341 8.49006 44.5865 8.91795 47.5562 8.91795V7.91795ZM54.7251 6.88096C52.9773 7.50038 50.4431 7.91795 47.5562 7.91795V8.91795C50.526 8.91795 53.1784 8.49006 55.0591 7.82352L54.7251 6.88096ZM56.5275 5.95818C56.1933 6.23817 55.606 6.56876 54.7251 6.88096L55.0591 7.82352C56.002 7.48936 56.7106 7.10941 57.1697 6.72468L56.5275 5.95818ZM58.0744 5.73814C58.0744 6.07144 57.8851 6.45782 57.3874 6.87484C56.8924 7.28966 56.1462 7.68569 55.1802 8.02802C53.2528 8.7111 50.5574 9.143 47.5562 9.143V10.143C50.6403 10.143 53.4539 9.70078 55.5143 8.97058C56.5423 8.60626 57.4096 8.16087 58.0297 7.64134C58.6471 7.12402 59.0744 6.48314 59.0744 5.73814H58.0744ZM47.5562 2.33328C50.5574 2.33328 53.2528 2.76519 55.1802 3.44827C56.1462 3.7906 56.8924 4.18663 57.3874 4.60144C57.8851 5.01847 58.0744 5.40485 58.0744 5.73814H59.0744C59.0744 4.99314 58.6471 4.35226 58.0297 3.83495C57.4096 3.31542 56.5423 2.87002 55.5143 2.50571C53.4539 1.77551 50.6403 1.33328 47.5562 1.33328V2.33328ZM37.0381 5.73814C37.0381 5.40485 37.2274 5.01847 37.7251 4.60144C38.2201 4.18663 38.9663 3.7906 39.9323 3.44827C41.8597 2.76519 44.5551 2.33328 47.5562 2.33328V1.33328C44.4722 1.33328 41.6586 1.77551 39.5982 2.50571C38.5702 2.87002 37.7029 3.31542 37.0828 3.83495C36.4654 4.35226 36.0381 4.99314 36.0381 5.73814H37.0381ZM47.5562 9.143C44.5551 9.143 41.8597 8.7111 39.9323 8.02802C38.9663 7.68569 38.2201 7.28966 37.7251 6.87484C37.2274 6.45782 37.0381 6.07144 37.0381 5.73814H36.0381C36.0381 6.48314 36.4654 7.12402 37.0828 7.64134C37.7029 8.16087 38.5702 8.60626 39.5982 8.97058C41.6586 9.70078 44.4722 10.143 47.5562 10.143V9.143ZM38.3343 5.87649C38.3343 5.23582 37.7933 4.76396 37.1862 4.76396L37.1862 5.76396C37.295 5.76396 37.3343 5.84058 37.3343 5.87649L38.3343 5.87649ZM38.3343 20.9441L38.3343 5.87649L37.3343 5.87649L37.3343 20.9441L38.3343 20.9441ZM37.1862 22.0567C37.7933 22.0567 38.3343 21.5848 38.3343 20.9441L37.3343 20.9441C37.3343 20.98 37.295 21.0567 37.1862 21.0567L37.1862 22.0567ZM36.0381 20.9441C36.0381 21.5848 36.5791 22.0567 37.1862 22.0567L37.1862 21.0567C37.0774 21.0567 37.0381 20.98 37.0381 20.9441L36.0381 20.9441ZM36.0381 5.87649L36.0381 20.9441L37.0381 20.9441L37.0381 5.87649L36.0381 5.87649ZM37.1862 4.76396C36.5791 4.76396 36.0381 5.23582 36.0381 5.87649L37.0381 5.87649C37.0381 5.84058 37.0774 5.76396 37.1862 5.76396L37.1862 4.76396ZM59.0744 6.09035C59.0744 5.44968 58.5334 4.97783 57.9263 4.97783L57.9263 5.97783C58.0351 5.97783 58.0744 6.05444 58.0744 6.09035L59.0744 6.09035ZM59.0744 21.0054V6.09035H58.0744V21.0054H59.0744ZM57.9263 22.1179C58.5334 22.1179 59.0744 21.6461 59.0744 21.0054L58.0744 21.0054C58.0744 21.0413 58.0351 21.1179 57.9263 21.1179L57.9263 22.1179ZM56.7782 21.0054C56.7782 21.6461 57.3192 22.1179 57.9263 22.1179L57.9263 21.1179C57.8175 21.1179 57.7782 21.0413 57.7782 21.0054L56.7782 21.0054ZM56.7782 6.09035V21.0054H57.7782V6.09035H56.7782ZM57.9263 4.97783C57.3192 4.97783 56.7782 5.44968 56.7782 6.09035L57.7782 6.09035C57.7782 6.05444 57.8175 5.97783 57.9263 5.97783L57.9263 4.97783Z" fill="#525651"/>
<ellipse cx="47.5562" cy="5.75321" rx="5.50247" ry="1.50067" fill="url(#paint1_linear_209_1117)"/>
<path d="M19.3359 53.2539L19.2547 53.6574L19.6351 53.8146L20.9014 54.3379C21.1014 54.4208 21.1946 54.6454 21.1104 54.8446L21.1093 54.8472L20.5341 56.2302L20.5339 56.2309C20.4534 56.425 20.2243 56.5215 20.0239 56.4385L20.0235 56.4384L18.7569 55.9149L18.3788 55.7586L18.1508 56.0983C17.5676 56.967 16.8262 57.6964 15.9807 58.2621L15.6408 58.4895L15.7963 58.8678L16.3198 60.1409L16.3203 60.1421C16.401 60.3368 16.306 60.5693 16.1062 60.6521L16.1055 60.6523L14.7232 61.2272C14.723 61.2273 14.7229 61.2274 14.7227 61.2275C14.5282 61.3077 14.2963 61.2129 14.2134 61.0135C14.2134 61.0134 14.2133 61.0133 14.2132 61.0131L13.6903 59.7412L13.5335 59.3598L13.1292 59.4412C12.1335 59.6416 11.0954 59.6476 10.0694 59.4412L9.66584 59.36L9.50864 59.7404L8.98534 61.0067C8.9853 61.0068 8.98525 61.0069 8.9852 61.007C8.98519 61.007 8.98518 61.007 8.98518 61.0071C8.90459 61.2009 8.67563 61.2973 8.47539 61.2143L7.09304 60.6394L7.09241 60.6392C6.89825 60.5587 6.80173 60.3296 6.88474 60.1292L6.88491 60.1288L7.40837 58.8621L7.56462 58.4841L7.22496 58.256C6.35627 57.6729 5.62684 56.9315 5.06118 56.086L4.83375 55.7461L4.45548 55.9016L3.18236 56.4251L3.18113 56.4256C2.98645 56.5062 2.75397 56.4113 2.67118 56.2115L2.67091 56.2108L2.09601 54.8285C2.09597 54.8284 2.09594 54.8283 2.0959 54.8282C2.01551 54.6338 2.11022 54.4017 2.30963 54.3187C2.3098 54.3187 2.30997 54.3186 2.31014 54.3185L3.58203 53.7956L3.96341 53.6388L3.88206 53.2345C3.6817 52.2388 3.67563 51.2007 3.88207 50.1746L3.96325 49.7711L3.58286 49.6139L2.3166 49.0906C2.31651 49.0906 2.31642 49.0906 2.31633 49.0905C2.12245 49.01 2.02605 48.7812 2.10882 48.581C2.10886 48.5809 2.1089 48.5808 2.10894 48.5807L2.68384 47.1983L2.6841 47.1977C2.76454 47.0035 2.99368 46.907 3.19406 46.99L3.19446 46.9902L4.46111 47.5137L4.83919 47.6699L5.06721 47.3303C5.65039 46.4616 6.39179 45.7321 7.23724 45.1665L7.57717 44.939L7.42164 44.5608L6.89817 43.2876L6.89767 43.2864C6.81701 43.0917 6.91194 42.8593 7.1118 42.7765L7.11243 42.7762L8.49478 42.2013C8.49484 42.2013 8.4949 42.2012 8.49496 42.2012C8.68943 42.1208 8.92156 42.2155 9.00452 42.4149C9.00459 42.4151 9.00466 42.4153 9.00473 42.4154L9.52769 43.6873L9.6845 44.0687L10.0888 43.9873C11.0845 43.787 12.1225 43.7809 13.1486 43.9874L13.5521 44.0685L13.7093 43.6881L14.2326 42.4219C14.2327 42.4218 14.2327 42.4216 14.2328 42.4215C14.2328 42.4215 14.2328 42.4215 14.2328 42.4215C14.3133 42.2277 14.5421 42.1313 14.7423 42.2141C14.7424 42.2141 14.7425 42.2142 14.7426 42.2142L16.1249 42.7891L16.1256 42.7894C16.3197 42.8698 16.4162 43.099 16.3332 43.2993L16.3331 43.2997L15.8096 44.5664L15.6534 44.9445L15.993 45.1725C16.8617 45.7557 17.5911 46.4971 18.1568 47.3425L18.3842 47.6825L18.7625 47.5269L20.0356 47.0035L20.0368 47.003C20.2315 46.9223 20.464 47.0172 20.5468 47.2171L20.5471 47.2177L21.122 48.6001C21.122 48.6002 21.1221 48.6004 21.1221 48.6005C21.2024 48.795 21.1077 49.0269 20.9083 49.1098C20.9081 49.1099 20.908 49.11 20.9078 49.11L19.6359 49.633L19.2546 49.7898L19.3359 50.194C19.5363 51.1898 19.5423 52.2278 19.3359 53.2539ZM7.46639 50.0016C6.52149 52.2912 7.60399 54.9173 9.89632 55.8633C12.1859 56.8082 14.812 55.7257 15.758 53.4334C16.7029 51.1438 15.6204 48.5177 13.3281 47.5717C11.0385 46.6268 8.41243 47.7093 7.46639 50.0016Z" fill="#0DA2DD" stroke="#525651"/>
<mask id="path-15-inside-1_209_1117" fill="white">
<path d="M22.1137 49.3069C22.2623 48.945 22.2623 48.5443 22.1137 48.176L21.5385 46.793C21.3123 46.2372 20.776 45.8818 20.1749 45.8818C19.9811 45.8818 19.7937 45.9206 19.6127 45.9916L18.7726 46.3406C18.262 45.6556 17.661 45.061 16.9825 44.5505L17.3314 43.7104C17.6416 42.9607 17.2862 42.0947 16.5365 41.7845L15.1536 41.2094C14.9726 41.1318 14.7852 41.0995 14.5913 41.0995C13.9903 41.0995 13.4604 41.455 13.2277 42.0107L12.8788 42.8509C12.0386 42.7281 11.1856 42.7281 10.3454 42.8509L9.99647 42.0107C9.77028 41.455 9.23389 41.0995 8.63287 41.0995C8.439 41.0995 8.25159 41.1383 8.07063 41.2094L6.68765 41.7845C6.32575 41.9332 6.0414 42.2175 5.8863 42.5859C5.73766 42.9478 5.73766 43.3485 5.8863 43.7168L6.23528 44.557C5.55025 45.0675 4.9557 45.6685 4.44516 46.3471L3.60503 45.9981C3.42408 45.9206 3.23667 45.8882 3.04279 45.8882C2.44178 45.8882 1.91185 46.2437 1.6792 46.7995L1.10403 48.1824C0.793833 48.9321 1.14927 49.7981 1.90539 50.1083L2.74551 50.4573C2.62273 51.2974 2.62273 52.1504 2.74551 52.9906L1.90539 53.3395C1.15573 53.6497 0.793833 54.5157 1.10403 55.2654L1.6792 56.6484C1.90539 57.2041 2.44178 57.5596 3.04279 57.5596C3.23667 57.5596 3.42408 57.5208 3.60503 57.4497L4.44516 57.1007C4.9557 57.7858 5.55671 58.3803 6.23528 58.8908L5.8863 59.731C5.5761 60.4806 5.93154 61.3466 6.68119 61.6568L8.06417 62.232C8.24512 62.3095 8.43254 62.3418 8.62641 62.3418C9.22743 62.3418 9.75735 61.9864 9.99 61.4306L10.339 60.5905C11.1791 60.7133 12.0322 60.7133 12.8723 60.5905L13.2213 61.4306C13.4475 61.9864 13.9838 62.3418 14.5849 62.3418C14.7787 62.3418 14.9661 62.3031 15.1471 62.232L16.5301 61.6568C17.2797 61.3466 17.6416 60.4806 17.3314 59.731L16.9825 58.8908C17.6675 58.3803 18.262 57.7793 18.7726 57.1007L19.6127 57.4497C19.7937 57.5273 19.9811 57.5596 20.1749 57.5596C20.776 57.5596 21.3059 57.2041 21.5385 56.6484L22.1137 55.2654C22.2623 54.9035 22.2623 54.5028 22.1137 54.1344C21.9651 53.7725 21.6807 53.4882 21.3123 53.3331L20.4722 52.9841C20.595 52.144 20.595 51.2909 20.4722 50.4508L21.3123 50.1018C21.6807 49.9532 21.9651 49.6688 22.1137 49.3069ZM21.0345 48.861C21.0021 48.9386 20.944 48.9967 20.8729 49.0226L19.5998 49.546C19.3413 49.6559 19.1926 49.9273 19.2508 50.1988C19.4511 51.2069 19.4511 52.2215 19.2508 53.2297C19.1991 53.5011 19.3413 53.779 19.5998 53.8824L20.8664 54.4059C20.944 54.4382 21.0021 54.4963 21.028 54.5674C21.0603 54.645 21.0603 54.7225 21.028 54.8001L20.4528 56.183C20.3882 56.3317 20.2073 56.4092 20.0586 56.3446L18.792 55.8211C18.5335 55.7113 18.2362 55.8018 18.0811 56.0344C17.5124 56.8875 16.795 57.6048 15.942 58.1735C15.7093 58.3286 15.6189 58.6259 15.7287 58.8844L16.2522 60.1575C16.3168 60.3126 16.2393 60.4936 16.0906 60.5517L14.7076 61.1269C14.5525 61.1915 14.3716 61.114 14.3134 60.9653L13.79 59.6922C13.6995 59.4725 13.4798 59.3303 13.2471 59.3303C13.2083 59.3303 13.1696 59.3368 13.1308 59.3432C12.1356 59.5436 11.0951 59.5436 10.0999 59.3432C9.82844 59.2915 9.55055 59.4337 9.44715 59.6922L8.92369 60.9589C8.85906 61.1075 8.67811 61.185 8.52947 61.1204L7.14649 60.5453C6.99139 60.4806 6.92031 60.3061 6.98493 60.151L7.5084 58.8844C7.61826 58.6259 7.52778 58.3286 7.29513 58.1735C6.44208 57.6048 5.72474 56.8875 5.15604 56.0279C5.00094 55.7953 4.70366 55.7048 4.44516 55.8147L3.17204 56.3381C3.01694 56.4028 2.83599 56.3252 2.77783 56.1766L2.20266 54.7936C2.13804 54.6385 2.21559 54.4576 2.36423 54.3994L3.63734 53.8759C3.89584 53.7661 4.04448 53.4946 3.98632 53.2232C3.78598 52.2151 3.78598 51.2004 3.98632 50.1923C4.03802 49.9209 3.89584 49.643 3.63734 49.5396L2.37069 49.0161C2.21559 48.9515 2.1445 48.777 2.20913 48.6219L2.78429 47.2389C2.84892 47.0903 3.02987 47.0127 3.1785 47.0774L4.44516 47.6008C4.70366 47.7107 5.00094 47.6202 5.15604 47.3876C5.72474 46.5345 6.44208 45.8172 7.29513 45.2485C7.52778 45.0934 7.61826 44.7961 7.5084 44.5376L6.98493 43.2645C6.95262 43.1869 6.95262 43.1094 6.98493 43.0318C7.01724 42.9543 7.07541 42.8961 7.14649 42.8702L8.52947 42.2951C8.68457 42.2305 8.86553 42.308 8.92369 42.4566L9.44715 43.7298C9.55702 43.9883 9.82844 44.1369 10.0999 44.0787C11.0951 43.8784 12.1356 43.8784 13.1308 44.0787C13.4022 44.1304 13.6801 43.9883 13.7835 43.7298L14.307 42.4631C14.3716 42.3145 14.5525 42.2369 14.7012 42.3015L16.0842 42.8767C16.2393 42.9413 16.3104 43.1158 16.2457 43.2709L15.7223 44.5376C15.6124 44.7961 15.7029 45.0934 15.9355 45.2485C16.7886 45.8172 17.5059 46.5345 18.0746 47.394C18.2297 47.6267 18.527 47.7171 18.7855 47.6073L20.0586 47.0838C20.2137 47.0192 20.3947 47.0967 20.4528 47.2454L21.028 48.6284C21.0668 48.6994 21.0668 48.7835 21.0345 48.861Z"/>
</mask>
<path d="M22.1137 49.3069C22.2623 48.945 22.2623 48.5443 22.1137 48.176L21.5385 46.793C21.3123 46.2372 20.776 45.8818 20.1749 45.8818C19.9811 45.8818 19.7937 45.9206 19.6127 45.9916L18.7726 46.3406C18.262 45.6556 17.661 45.061 16.9825 44.5505L17.3314 43.7104C17.6416 42.9607 17.2862 42.0947 16.5365 41.7845L15.1536 41.2094C14.9726 41.1318 14.7852 41.0995 14.5913 41.0995C13.9903 41.0995 13.4604 41.455 13.2277 42.0107L12.8788 42.8509C12.0386 42.7281 11.1856 42.7281 10.3454 42.8509L9.99647 42.0107C9.77028 41.455 9.23389 41.0995 8.63287 41.0995C8.439 41.0995 8.25159 41.1383 8.07063 41.2094L6.68765 41.7845C6.32575 41.9332 6.0414 42.2175 5.8863 42.5859C5.73766 42.9478 5.73766 43.3485 5.8863 43.7168L6.23528 44.557C5.55025 45.0675 4.9557 45.6685 4.44516 46.3471L3.60503 45.9981C3.42408 45.9206 3.23667 45.8882 3.04279 45.8882C2.44178 45.8882 1.91185 46.2437 1.6792 46.7995L1.10403 48.1824C0.793833 48.9321 1.14927 49.7981 1.90539 50.1083L2.74551 50.4573C2.62273 51.2974 2.62273 52.1504 2.74551 52.9906L1.90539 53.3395C1.15573 53.6497 0.793833 54.5157 1.10403 55.2654L1.6792 56.6484C1.90539 57.2041 2.44178 57.5596 3.04279 57.5596C3.23667 57.5596 3.42408 57.5208 3.60503 57.4497L4.44516 57.1007C4.9557 57.7858 5.55671 58.3803 6.23528 58.8908L5.8863 59.731C5.5761 60.4806 5.93154 61.3466 6.68119 61.6568L8.06417 62.232C8.24512 62.3095 8.43254 62.3418 8.62641 62.3418C9.22743 62.3418 9.75735 61.9864 9.99 61.4306L10.339 60.5905C11.1791 60.7133 12.0322 60.7133 12.8723 60.5905L13.2213 61.4306C13.4475 61.9864 13.9838 62.3418 14.5849 62.3418C14.7787 62.3418 14.9661 62.3031 15.1471 62.232L16.5301 61.6568C17.2797 61.3466 17.6416 60.4806 17.3314 59.731L16.9825 58.8908C17.6675 58.3803 18.262 57.7793 18.7726 57.1007L19.6127 57.4497C19.7937 57.5273 19.9811 57.5596 20.1749 57.5596C20.776 57.5596 21.3059 57.2041 21.5385 56.6484L22.1137 55.2654C22.2623 54.9035 22.2623 54.5028 22.1137 54.1344C21.9651 53.7725 21.6807 53.4882 21.3123 53.3331L20.4722 52.9841C20.595 52.144 20.595 51.2909 20.4722 50.4508L21.3123 50.1018C21.6807 49.9532 21.9651 49.6688 22.1137 49.3069ZM21.0345 48.861C21.0021 48.9386 20.944 48.9967 20.8729 49.0226L19.5998 49.546C19.3413 49.6559 19.1926 49.9273 19.2508 50.1988C19.4511 51.2069 19.4511 52.2215 19.2508 53.2297C19.1991 53.5011 19.3413 53.779 19.5998 53.8824L20.8664 54.4059C20.944 54.4382 21.0021 54.4963 21.028 54.5674C21.0603 54.645 21.0603 54.7225 21.028 54.8001L20.4528 56.183C20.3882 56.3317 20.2073 56.4092 20.0586 56.3446L18.792 55.8211C18.5335 55.7113 18.2362 55.8018 18.0811 56.0344C17.5124 56.8875 16.795 57.6048 15.942 58.1735C15.7093 58.3286 15.6189 58.6259 15.7287 58.8844L16.2522 60.1575C16.3168 60.3126 16.2393 60.4936 16.0906 60.5517L14.7076 61.1269C14.5525 61.1915 14.3716 61.114 14.3134 60.9653L13.79 59.6922C13.6995 59.4725 13.4798 59.3303 13.2471 59.3303C13.2083 59.3303 13.1696 59.3368 13.1308 59.3432C12.1356 59.5436 11.0951 59.5436 10.0999 59.3432C9.82844 59.2915 9.55055 59.4337 9.44715 59.6922L8.92369 60.9589C8.85906 61.1075 8.67811 61.185 8.52947 61.1204L7.14649 60.5453C6.99139 60.4806 6.92031 60.3061 6.98493 60.151L7.5084 58.8844C7.61826 58.6259 7.52778 58.3286 7.29513 58.1735C6.44208 57.6048 5.72474 56.8875 5.15604 56.0279C5.00094 55.7953 4.70366 55.7048 4.44516 55.8147L3.17204 56.3381C3.01694 56.4028 2.83599 56.3252 2.77783 56.1766L2.20266 54.7936C2.13804 54.6385 2.21559 54.4576 2.36423 54.3994L3.63734 53.8759C3.89584 53.7661 4.04448 53.4946 3.98632 53.2232C3.78598 52.2151 3.78598 51.2004 3.98632 50.1923C4.03802 49.9209 3.89584 49.643 3.63734 49.5396L2.37069 49.0161C2.21559 48.9515 2.1445 48.777 2.20913 48.6219L2.78429 47.2389C2.84892 47.0903 3.02987 47.0127 3.1785 47.0774L4.44516 47.6008C4.70366 47.7107 5.00094 47.6202 5.15604 47.3876C5.72474 46.5345 6.44208 45.8172 7.29513 45.2485C7.52778 45.0934 7.61826 44.7961 7.5084 44.5376L6.98493 43.2645C6.95262 43.1869 6.95262 43.1094 6.98493 43.0318C7.01724 42.9543 7.07541 42.8961 7.14649 42.8702L8.52947 42.2951C8.68457 42.2305 8.86553 42.308 8.92369 42.4566L9.44715 43.7298C9.55702 43.9883 9.82844 44.1369 10.0999 44.0787C11.0951 43.8784 12.1356 43.8784 13.1308 44.0787C13.4022 44.1304 13.6801 43.9883 13.7835 43.7298L14.307 42.4631C14.3716 42.3145 14.5525 42.2369 14.7012 42.3015L16.0842 42.8767C16.2393 42.9413 16.3104 43.1158 16.2457 43.2709L15.7223 44.5376C15.6124 44.7961 15.7029 45.0934 15.9355 45.2485C16.7886 45.8172 17.5059 46.5345 18.0746 47.394C18.2297 47.6267 18.527 47.7171 18.7855 47.6073L20.0586 47.0838C20.2137 47.0192 20.3947 47.0967 20.4528 47.2454L21.028 48.6284C21.0668 48.6994 21.0668 48.7835 21.0345 48.861Z" fill="#0DA2DD" stroke="#525651" stroke-width="2" mask="url(#path-15-inside-1_209_1117)"/>
<path d="M7.84811 53.2785L7.84773 53.2776C7.43328 52.276 7.43281 51.1725 7.84794 50.1632C8.48134 48.632 9.95929 47.6484 11.6122 47.6484C12.1475 47.6484 12.6706 47.7518 13.1724 47.9594C14.1735 48.3737 14.9556 49.1548 15.3769 50.1643C15.7911 51.1658 15.7915 52.2691 15.3764 53.2783C14.743 54.8094 13.2651 55.7929 11.6122 55.7929C11.0769 55.7929 10.5538 55.6895 10.052 55.4819L10.0511 55.4815C9.04356 55.067 8.26265 54.2861 7.84811 53.2785ZM10.1214 55.32L10.1251 55.3215C10.5951 55.5124 11.0983 55.6167 11.6122 55.6167C13.1917 55.6167 14.6072 54.6672 15.2144 53.2091C15.6153 52.2511 15.6141 51.189 15.2153 50.2215L15.2147 50.2202C14.815 49.2579 14.0652 48.5082 13.103 48.1084L13.103 48.1084L13.0994 48.107C12.6293 47.916 12.1261 47.8117 11.6122 47.8117C10.0326 47.8117 8.61686 48.7615 8.00981 50.2199L8.00967 50.2202C7.6097 51.1831 7.6097 52.2453 8.00967 53.2082C8.40939 54.1705 9.15917 54.9203 10.1214 55.32Z" fill="#0DA2DD" stroke="#525651"/>
<line x1="7.33124" y1="17.3084" x2="33.3217" y2="17.3084" stroke="#525651" stroke-width="2"/>
<path fill-rule="evenodd" clip-rule="evenodd" d="M52.1595 46.8087H53.5394C53.8703 46.8087 54.1387 46.5404 54.1387 46.2094C54.1387 45.8784 53.8703 45.6101 53.5394 45.6101H52.1595V46.8087ZM51.1595 45.6101H39.2354C38.9044 45.6101 38.636 45.8784 38.636 46.2094C38.636 46.5404 38.9044 46.8087 39.2354 46.8087H51.1595V45.6101Z" fill="#525651"/>
<defs>
<linearGradient id="paint0_linear_209_1117" x1="58.6084" y1="14.8922" x2="35.7129" y2="14.8922" gradientUnits="userSpaceOnUse">
<stop offset="0.0428571" stop-color="#D07100"/>
<stop offset="0.562857" stop-color="#F9C17F"/>
<stop offset="1" stop-color="#FDD7AA"/>
</linearGradient>
<linearGradient id="paint1_linear_209_1117" x1="47.0721" y1="4.25253" x2="47.0721" y2="9.23379" gradientUnits="userSpaceOnUse">
<stop stop-color="#F4634C"/>
<stop offset="0.634618" stop-color="#A81700"/>
</linearGradient>
</defs>
</svg>
